# xmcd
# 
# Track frame offsets:
#     150
#     10456
#     24545
#     34117
#     46734
#     57885
#     69346
#     81588
#     93806
#     105676
#     119991
#     130962
#     143189
#     154961
#     169133
#     180394
#     193120
#     203841
#     215190
#     226762
#     238770
#     248805
#     262056
#     272527
#     287315
# 
# Disc length: 3965
# 
# Revision: 1
# Processed by: cddbd v1.5.2PL0 Copyright (c) Steve Scherf et al.
# Submitted via: fre:ac v1.1beta1
# 
DISCID=6e0f7b19
DTITLE=Various Artist - Soul Brothers and Blues Sisters
DYEAR=0
DGENRE=
TTITLE0=James Brown - Good Good  Lovin'
TTITLE1=Esther Phillips - Just Out Of Reach
TTITLE2=Sam Cooke - Wonderful World
TTITLE3=Dinah Washington - Mad About The Boy
TTITLE4=Brook Benton - It's Just A Matter Of Time
TTITLE5=Nina Simone - I Want A Little Sugar In My Bowl
TTITLE6=Smokey Robinson and The Miracles - Bad Girl
TTITLE7=Etta James - W-O-M-A-N
TTITLE8=Ottis Reading - That's What My Heart Needs
TTITLE9=Billie Holiday - Baby, I Don't Cry Over You
TTITLE10=Sam and Dave - I Need Love
TTITLE11=Ruth Brown - It's Love Baby
TTITLE12=Wilson Pickett - If You Need Me
TTITLE13=Lavern Baker - Gimme A Pigfoot (And A Bottle Of Beer)
TTITLE14=Marvin Gaye - Taking My Time
TTITLE15=Eartha Kitt - Friendless Blues
TTITLE16=Jimmy Ruffin - Don't Feel Sorry For Me
TTITLE17=Big Maybelle - Ain't To Be Played With
TTITLE18=Jackie Wilson - A Woman, A Lover, A Friend
TTITLE19=Big Mama Thornton - I Smell A Rat
TTITLE20=Little Anthony and The Imperials - Tears On My Pillow
TTITLE21=Dakato Staton - I'm Left With Blues In My Heart
TTITLE22=Marv Johnson - Come To Me
TTITLE23=Sarah Vaughan - Lover Man
TTITLE24=Stevie Wonder - Contract On Love
EXTD=
EXTT0=
EXTT1=
EXTT2=
EXTT3=
EXTT4=
EXTT5=
EXTT6=
EXTT7=
EXTT8=
EXTT9=
EXTT10=
EXTT11=
EXTT12=
EXTT13=
EXTT14=
EXTT15=
EXTT16=
EXTT17=
EXTT18=
EXTT19=
EXTT20=
EXTT21=
EXTT22=
EXTT23=
EXTT24=
PLAYORDER=
